<svg width="24" height="24" viewBox="0 0 24 24" xmlns="http://www.w3.org/2000/svg"><title>icon_settings-white</title><g fill="none" fill-rule="evenodd"><path fill-opacity="0" fill="#D8D8D8" d="M-7-7h38v38H-7z"/><path d="M13.708 3.9v1.2l2.9 1.7 1.1-.6 1.7-1 2 3.5-1.7 1-1 .6v3.2l1 .6 1.7 1-2 3.5-1.7-1-1.1-.6-2.9 1.7V22h-4v-3.3l-2.9-1.7-1.1.6-1.7 1-2-3.5 1.7-1 1-.6v-3.2l-1-.6-1.7-1 2-3.5 1.7 1 1.1.6 2.9-1.7V2h4v1.9zm-2 12.1c2.2 0 4-1.8 4-4s-1.8-4-4-4-4 1.8-4 4 1.8 4 4 4zm-2-16c-1.1 0-2 .9-2 2v1.9c-.3.2-.7.4-1 .6l-1.7-1c-.3-.2-.7-.3-1-.3-.7 0-1.4.4-1.7 1l-2 3.5c-.6 1-.2 2.2.7 2.7l1.7 1v1.2l-1.7 1c-1 .6-1.3 1.8-.7 2.7l2 3.5c.4.6 1 1 1.7 1 .3 0 .7-.1 1-.3l1.7-1c.3.2.6.4 1 .6V22c0 1.1.9 2 2 2h4c1.1 0 2-.9 2-2v-1.9c.3-.2.7-.4 1-.6l1.7 1c.3.2.7.3 1 .3.7 0 1.4-.4 1.7-1l2-3.5c.6-1 .2-2.2-.7-2.7l-1.7-1v-1.2l1.7-1c1-.6 1.3-1.8.7-2.7l-2-3.5c-.4-.6-1-1-1.7-1-.3 0-.7.1-1 .3l-1.7 1c-.3-.2-.6-.4-1-.6V2c0-1.1-.9-2-2-2h-4zm2 14c-1.1 0-2-.9-2-2s.9-2 2-2 2 .9 2 2-.9 2-2 2z" fill="#FFF"/></g></svg>