<?xml version="1.0" encoding="UTF-8"?>
<svg width="25px" height="25px" viewBox="0 0 25 25" version="1.1" xmlns="http://www.w3.org/2000/svg" xmlns:xlink="http://www.w3.org/1999/xlink">
    <g id="Page-1" stroke="none" stroke-width="1" fill="none" fill-rule="evenodd">
        <g id="Group">
            <path d="M12.5,25 C19.4035594,25 25,19.4035594 25,12.5 C25,5.59644063 19.4035594,0 12.5,0 C5.59644063,0 0,5.59644063 0,12.5 C0,19.4035594 5.59644063,25 12.5,25 Z M12.5,23 C18.2989899,23 23,18.2989899 23,12.5 C23,6.70101013 18.2989899,2 12.5,2 C6.70101013,2 2,6.70101013 2,12.5 C2,18.2989899 6.70101013,23 12.5,23 Z" id="Combined-Shape" fill=""></path>
            <path d="M13,0.00981724276 C19.6717666,0.272269145 25,5.76389678 25,12.5 C25,15.2865428 24.088205,17.8601245 22.5466913,19.9386687 L20.928465,18.7629585 C22.2298499,17.0144608 23,14.8471695 23,12.5 C23,6.86862308 18.5668168,2.27267158 13,2.0116951 L13,0.00981724276 Z" id="Combined-Shape" fill="#1D1D1D"></path>
        </g>
    </g>
</svg>